<svg width="20" height="17" viewBox="0 0 20 17" fill="none" xmlns="http://www.w3.org/2000/svg">
<path fill-rule="evenodd" clip-rule="evenodd" d="M11.7391 2.23198C11.5569 1.91253 11.2713 1.64293 10.9151 1.45423C10.5589 1.26552 10.1467 1.16541 9.72588 1.16541C9.30507 1.16541 8.89283 1.26552 8.53664 1.45423C8.18046 1.64293 7.89483 1.91253 7.71268 2.23198L1.28751 12.8753C0.518801 14.146 1.49018 15.8333 3.29993 15.8333H16.151C17.9616 15.8333 18.9314 14.1466 18.1643 12.8753L11.7391 2.23198ZM9.72588 5.83331C9.93585 5.83331 10.1372 5.90355 10.2857 6.02857C10.4341 6.1536 10.5176 6.32316 10.5176 6.49998V9.83331C10.5176 10.0101 10.4341 10.1797 10.2857 10.3047C10.1372 10.4297 9.93585 10.5 9.72588 10.5C9.51592 10.5 9.31456 10.4297 9.16609 10.3047C9.01762 10.1797 8.93422 10.0101 8.93422 9.83331V6.49998C8.93422 6.32316 9.01762 6.1536 9.16609 6.02857C9.31456 5.90355 9.51592 5.83331 9.72588 5.83331ZM9.72588 11.5C9.93585 11.5 10.1372 11.5702 10.2857 11.6952C10.4341 11.8203 10.5176 11.9898 10.5176 12.1666V12.5C10.5176 12.6768 10.4341 12.8464 10.2857 12.9714C10.1372 13.0964 9.93585 13.1666 9.72588 13.1666C9.51592 13.1666 9.31456 13.0964 9.16609 12.9714C9.01762 12.8464 8.93422 12.6768 8.93422 12.5V12.1666C8.93422 11.9898 9.01762 11.8203 9.16609 11.6952C9.31456 11.5702 9.51592 11.5 9.72588 11.5Z" fill="#F9F5F0"/>
</svg>
