<svg width="12" height="12" viewBox="0 0 12 12" fill="none" xmlns="http://www.w3.org/2000/svg">
<path d="M5.24537e-07 6C6.63652e-07 4.4087 0.632142 2.88258 1.75736 1.75736C2.88258 0.63214 4.4087 -6.63652e-07 6 -5.24537e-07C7.5913 -3.85421e-07 9.11742 0.632141 10.2426 1.75736C11.3679 2.88258 12 4.4087 12 6C12 7.5913 11.3679 9.11742 10.2426 10.2426C9.11742 11.3679 7.5913 12 6 12C4.4087 12 2.88258 11.3679 1.75736 10.2426C0.632141 9.11742 3.85421e-07 7.5913 5.24537e-07 6ZM4.428 3.89775C4.39341 3.86193 4.35203 3.83336 4.30628 3.81371C4.26053 3.79406 4.21132 3.78371 4.16153 3.78328C4.11173 3.78285 4.06235 3.79234 4.01627 3.81119C3.97018 3.83005 3.92831 3.85789 3.8931 3.8931C3.85789 3.92831 3.83005 3.97018 3.81119 4.01627C3.79234 4.06235 3.78285 4.11173 3.78328 4.16152C3.78371 4.21132 3.79406 4.26052 3.81371 4.30628C3.83337 4.35203 3.86193 4.39341 3.89775 4.428L6.96975 7.5L4.89375 7.5C4.79429 7.5 4.69891 7.53951 4.62859 7.60983C4.55826 7.68016 4.51875 7.77554 4.51875 7.875C4.51875 7.97446 4.55826 8.06984 4.62859 8.14016C4.69891 8.21049 4.79429 8.25 4.89375 8.25L7.875 8.25C7.97446 8.25 8.06984 8.21049 8.14017 8.14016C8.21049 8.06984 8.25 7.97446 8.25 7.875L8.25 4.89375C8.25 4.79429 8.21049 4.69891 8.14017 4.62858C8.06984 4.55826 7.97446 4.51875 7.875 4.51875C7.77554 4.51875 7.68016 4.55826 7.60984 4.62858C7.53951 4.69891 7.5 4.79429 7.5 4.89375L7.5 6.96975L4.428 3.89775Z" fill="#69BD6D"/>
</svg>
