<svg width="20" height="20" viewBox="0 0 20 20" fill="none" xmlns="http://www.w3.org/2000/svg">
<path d="M15.4169 11.3872V5.22276C15.4169 4.37514 14.7234 3.68164 13.8758 3.68164H3.08799C2.24038 3.68164 1.54688 4.37514 1.54688 5.22276V11.3872C1.54688 12.2348 2.24038 12.9284 3.08799 12.9284H13.8758C14.7234 12.9284 15.4169 12.2348 15.4169 11.3872ZM13.8758 11.3872H3.08799V5.22276H13.8758V11.3872ZM8.48191 5.99332C7.20278 5.99332 6.17023 7.02587 6.17023 8.305C6.17023 9.58412 7.20278 10.6167 8.48191 10.6167C9.76103 10.6167 10.7936 9.58412 10.7936 8.305C10.7936 7.02587 9.76103 5.99332 8.48191 5.99332ZM18.4992 5.99332V14.4695C18.4992 15.3171 17.8057 16.0106 16.9581 16.0106H3.85855C3.85855 15.24 3.85855 15.3171 3.85855 14.4695H16.9581V5.99332C17.8057 5.99332 17.7286 5.99332 18.4992 5.99332Z" fill="#F9F5F0"/>
</svg>
