<svg width="15" height="14" viewBox="0 0 15 14" fill="none" xmlns="http://www.w3.org/2000/svg">
<g clip-path="url(#clip0_12_156)">
<path d="M0.000259399 2.43862C0.000259399 1.95014 0.197804 1.48166 0.549434 1.13626C0.901065 0.790849 1.37798 0.596802 1.87526 0.596802L13.1253 0.596802C13.6225 0.596802 14.0995 0.790849 14.4511 1.13626C14.8027 1.48166 15.0003 1.95014 15.0003 2.43862V9.80587C15.0003 10.2944 14.8027 10.7628 14.4511 11.1082C14.0995 11.4536 13.6225 11.6477 13.1253 11.6477H4.13838C3.88976 11.6477 3.65135 11.7448 3.47557 11.9175L0.800884 14.5449C0.735382 14.6094 0.65187 14.6533 0.560918 14.6712C0.469967 14.6891 0.375664 14.68 0.289946 14.6452C0.204228 14.6104 0.130949 14.5514 0.0793818 14.4757C0.0278149 14.3999 0.000279101 14.3109 0.000259399 14.2198L0.000259399 2.43862ZM3.28151 3.35952C3.15719 3.35952 3.03796 3.40803 2.95005 3.49439C2.86215 3.58074 2.81276 3.69786 2.81276 3.81998C2.81276 3.9421 2.86215 4.05921 2.95005 4.14557C3.03796 4.23192 3.15719 4.28043 3.28151 4.28043H11.719C11.8433 4.28043 11.9626 4.23192 12.0505 4.14557C12.1384 4.05921 12.1878 3.9421 12.1878 3.81998C12.1878 3.69786 12.1384 3.58074 12.0505 3.49439C11.9626 3.40803 11.8433 3.35952 11.719 3.35952H3.28151ZM3.28151 5.66179C3.15719 5.66179 3.03796 5.7103 2.95005 5.79665C2.86215 5.88301 2.81276 6.00012 2.81276 6.12224C2.81276 6.24436 2.86215 6.36148 2.95005 6.44783C3.03796 6.53419 3.15719 6.5827 3.28151 6.5827H11.719C11.8433 6.5827 11.9626 6.53419 12.0505 6.44783C12.1384 6.36148 12.1878 6.24436 12.1878 6.12224C12.1878 6.00012 12.1384 5.88301 12.0505 5.79665C11.9626 5.7103 11.8433 5.66179 11.719 5.66179H3.28151ZM3.28151 7.96406C3.15719 7.96406 3.03796 8.01257 2.95005 8.09892C2.86215 8.18527 2.81276 8.30239 2.81276 8.42451C2.81276 8.54663 2.86215 8.66375 2.95005 8.7501C3.03796 8.83645 3.15719 8.88496 3.28151 8.88496H7.96901C8.09333 8.88496 8.21256 8.83645 8.30047 8.7501C8.38837 8.66375 8.43776 8.54663 8.43776 8.42451C8.43776 8.30239 8.38837 8.18527 8.30047 8.09892C8.21256 8.01257 8.09333 7.96406 7.96901 7.96406H3.28151Z" fill="#F9F5F0"/>
</g>
<defs>
<clipPath id="clip0_12_156">
<rect width="15" height="13" fill="white" transform="translate(0.000259399 0.596802)"/>
</clipPath>
</defs>
</svg>
