<svg width="16" height="18" viewBox="0 0 16 18" fill="none" xmlns="http://www.w3.org/2000/svg">
<path fill-rule="evenodd" clip-rule="evenodd" d="M4 2.45455V1.63636C4 0.732625 4.71634 0 5.6 0H10.4C11.2837 0 12 0.732625 12 1.63636V2.45455H14.4C15.2837 2.45455 16 3.18717 16 4.09091V5.72727C16 6.63101 15.2837 7.36364 14.4 7.36364H14.3359L13.6 16.3636C13.6 17.2674 12.8837 18 12 18H4C3.11634 18 2.4 17.2674 2.40276 16.4316L1.66389 7.36364H1.6C0.716344 7.36364 0 6.63101 0 5.72727V4.09091C0 3.18717 0.716344 2.45455 1.6 2.45455H4ZM4 4.09091H1.6V5.72727H14.4V4.09091H12H4ZM3.26919 7.36364L4 16.3636H12L12.0028 16.2957L12.7306 7.36364H3.26919ZM10.4 2.45455V1.63636H5.6V2.45455H10.4Z" fill="#8A8A8E"/>
</svg>
