<svg width="92" height="113" viewBox="0 0 92 113" fill="none" xmlns="http://www.w3.org/2000/svg">
<path d="M69.7322 1.55405C70.1243 1.55405 70.4996 1.71333 70.7721 1.99536L80.201 11.7555L69.7322 1.55405ZM69.7322 1.55405H7.37288C4.17022 1.55405 1.55405 4.1326 1.55405 7.33784V105.662C1.55405 108.867 4.17022 111.446 7.37288 111.446H84.6271C87.8298 111.446 90.4459 108.867 90.4459 105.662V21.9537C90.4459 21.5525 90.2793 21.1693 89.9857 20.8958M69.7322 1.55405L89.9857 20.8958M89.9857 20.8958L89 21.9537L89.9857 20.8958Z" fill="#F4FDFE" stroke="#D3E9EB" stroke-width="2.89189" stroke-linejoin="round"/>
<path d="M81.7122 36.2568H10.2884C9.48341 36.2568 8.83081 37.2279 8.83081 38.4258C8.83081 39.6236 9.48341 40.5947 10.2884 40.5947H81.7122C82.5172 40.5947 83.1698 39.6236 83.1698 38.4258C83.1698 37.2279 82.5172 36.2568 81.7122 36.2568Z" fill="#4E989F" fill-opacity="0.2"/>
<path d="M75.2815 52.1621H10.1598C9.42583 52.1621 8.83081 53.1332 8.83081 54.331C8.83081 55.5289 9.42583 56.4999 10.1598 56.4999H75.2815C76.0155 56.4999 76.6105 55.5289 76.6105 54.331C76.6105 53.1332 76.0155 52.1621 75.2815 52.1621Z" fill="#4E989F" fill-opacity="0.2"/>
<path d="M67.1359 68.0674H10.2884C9.48341 68.0674 8.83081 69.0384 8.83081 70.2363C8.83081 71.4342 9.48341 72.4052 10.2884 72.4052H67.1359C67.9409 72.4052 68.5935 71.4342 68.5935 70.2363C68.5935 69.0384 67.9409 68.0674 67.1359 68.0674Z" fill="#4E989F" fill-opacity="0.2"/>
<path d="M52.5596 83.9727H10.2884C9.48341 83.9727 8.83081 84.9437 8.83081 86.1416C8.83081 87.3394 9.48341 88.3105 10.2884 88.3105H52.5596C53.3646 88.3105 54.0173 87.3394 54.0173 86.1416C54.0173 84.9437 53.3646 83.9727 52.5596 83.9727Z" fill="#4E989F" fill-opacity="0.2"/>
<path fill-rule="evenodd" clip-rule="evenodd" d="M68.8598 4.61569L87.2759 22.8842C87.5036 23.1101 87.5036 23.4763 87.2759 23.7022C87.1666 23.8106 87.0183 23.8716 86.8637 23.8716H75.8815C71.4538 23.8716 67.8645 20.311 67.8645 15.9189V5.02467C67.8645 4.70524 68.1255 4.44629 68.4476 4.44629C68.6022 4.44629 68.7505 4.50722 68.8598 4.61569Z" fill="#4E989F" fill-opacity="0.2"/>
</svg>
