<svg width="140" height="140" viewBox="0 0 140 140" fill="none" xmlns="http://www.w3.org/2000/svg">
<circle cx="70" cy="70" r="70" fill="#EEF6F6"/>
<path d="M40.0002 65.8503H39.1838V66.6667V93.3333V94.1497H40.0002H100H100.816V93.3333V66.6667V65.8503H100H40.0002ZM39.1838 60V60.8163H40.0002H100H100.816V60V53.3333V52.517L100 52.517L69.9867 52.517C69.986 52.517 69.9853 52.517 69.9846 52.517C68.9281 52.511 68.0857 52.2643 67.3199 51.8028C66.5376 51.3314 65.7987 50.6139 64.9883 49.6093C64.838 49.4229 64.4991 48.9859 64.2368 48.6477C64.087 48.4545 63.9622 48.2935 63.9119 48.2301C63.2761 47.4279 62.7092 46.8205 62.0879 46.4233C61.4307 46.0034 60.7651 45.8503 60.0002 45.8503H40.0002H39.1838V46.6667V60ZM67.857 45.1032C68.2666 45.62 68.5823 46.019 68.8223 46.3229C68.8305 46.3382 68.837 46.349 68.8398 46.3538C68.8481 46.3676 68.8551 46.3785 68.8592 46.3847C68.8674 46.3972 68.8743 46.407 68.8776 46.4117C68.8894 46.4282 68.9017 46.4442 68.9069 46.451C68.9097 46.4546 68.9126 46.4585 68.9158 46.4625C68.9247 46.476 68.9362 46.4934 68.9503 46.5151C68.9922 46.5798 69.0456 46.6647 69.0997 46.7516C69.1534 46.8378 69.2057 46.9228 69.2448 46.9864L69.2916 47.0628L69.3045 47.084L69.3078 47.0894L69.3086 47.0908L69.3088 47.0911L69.3088 47.0911L69.5474 47.483H70.0003C70.0623 47.4953 70.1271 47.5047 70.1813 47.5068C70.2077 47.5018 70.2361 47.4937 70.266 47.483H100C103.231 47.483 105.85 50.1023 105.85 53.3333V93.3333C105.85 96.5644 103.231 99.1837 100 99.1837H40.0002C36.7691 99.1837 34.1498 96.5644 34.1498 93.3333V46.6667C34.1498 43.4356 36.7691 40.8163 40.0002 40.8163H60.0002C61.7419 40.8163 63.1274 41.1835 64.35 41.8785C65.5842 42.5801 66.6991 43.6423 67.857 45.1032Z" fill="#4E989F" stroke="#EEF6F6" stroke-width="1.63265"/>
</svg>
