<svg width="18" height="18" viewBox="0 0 18 18" fill="none" xmlns="http://www.w3.org/2000/svg">
<path fill-rule="evenodd" clip-rule="evenodd" d="M17.1 9.89997C17.597 9.89997 18 10.3029 18 10.8V16.2C18 17.1941 17.1941 18 16.2 18H1.8C0.805885 18 0 17.1941 0 16.2V1.8C0 0.805885 0.805885 0 1.8 0H7.19998C7.69704 0 8.09998 0.402943 8.09998 0.899998V0.899998C8.09998 1.39705 7.69704 1.8 7.19998 1.8H1.8V16.2H16.2V10.8C16.2 10.3029 16.6029 9.89997 17.1 9.89997V9.89997Z" fill="#8A8A8E"/>
<path fill-rule="evenodd" clip-rule="evenodd" d="M12.1424 4.49536C12.1424 4.49536 7.0114 9.66673 6.64676 9.98923C6.28213 10.3117 6.05655 10.7629 6.02027 11.1756C5.984 11.5884 5.56257 12.5634 5.56257 12.5634C5.56257 12.5634 6.42467 12.0949 6.90547 12.0608C7.38627 12.0268 7.72105 11.6806 8.08042 11.2695L13.5361 5.81382L12.1424 4.49536ZM13.4154 3.22278L14.8089 4.54103L15.6134 3.73653C15.6913 3.65859 15.7351 3.55288 15.7351 3.44265C15.7351 3.33242 15.6913 3.2267 15.6134 3.14876L14.8053 2.41599C14.7282 2.33832 14.6233 2.29462 14.5139 2.29462C14.4044 2.29462 14.2995 2.33832 14.2225 2.41599L13.4154 3.22278ZM14.5139 0.494629C15.1031 0.494629 15.668 0.729906 16.0805 1.14571L16.8862 1.87597C17.3017 2.29148 17.5351 2.85503 17.5351 3.44265C17.5351 4.03027 17.3017 4.59382 16.8862 5.00932L9.39686 12.4954C8.76823 13.2206 7.87712 13.6661 6.85625 13.7361L3.76257 14.3628L3.94628 13.2016L4.2232 11.1032C4.29987 10.1542 4.74108 9.2717 5.41412 8.67869L12.9461 1.14679C13.361 0.729375 13.9253 0.494629 14.5139 0.494629Z" fill="#8A8A8E"/>
</svg>
