<svg width="140" height="140" viewBox="0 0 140 140" fill="none" xmlns="http://www.w3.org/2000/svg">
<circle cx="70" cy="70" r="70" fill="#EEF6F6"/>
<path d="M71.5848 55.9071L71.0077 55.3299L70.4304 55.907L45.0935 81.2378C43.6088 82.5597 42.6733 84.4111 42.52 86.155L42.5168 86.1906V86.2264V96.6768V97.4926L43.3327 97.4931L53.5459 97.4994L53.5751 97.4994L53.6041 97.4974C55.607 97.3556 57.4527 96.4234 58.912 94.764L84.0994 69.5766L84.6766 68.9994L84.0994 68.4222L71.5848 55.9071ZM75.145 51.1935L74.5677 51.7707L75.145 52.348L87.659 64.8626L88.2362 65.4398L88.8134 64.8626L96.793 56.883C97.2348 56.4412 97.483 55.842 97.483 55.2173C97.483 54.5925 97.2348 53.9933 96.793 53.5515L86.4497 43.2082C86.4493 43.2078 86.4489 43.2074 86.4485 43.2069C86.0099 42.7656 85.4133 42.5173 84.791 42.5173C84.1686 42.5173 83.5719 42.7657 83.1332 43.2073C83.1329 43.2076 83.1326 43.2079 83.1323 43.2082L75.145 51.1935ZM90.014 39.6534L90.0163 39.6556L100.353 49.992C101.738 51.3778 102.517 53.2574 102.517 55.2173C102.517 57.1771 101.738 59.0566 100.353 60.4425C100.353 60.4425 100.353 60.4425 100.353 60.4426L62.6144 98.1689L62.5938 98.1895L62.5747 98.2115C60.3988 100.721 57.313 102.274 53.7535 102.525H37.4828V100.008V100.008L37.4936 85.9917C37.7685 82.6928 39.3066 79.6361 41.6278 77.5909L41.6472 77.5738L41.6654 77.5556L79.5617 39.6597L79.5634 39.6579C80.9469 38.2661 82.8284 37.4833 84.791 37.4833C86.7565 37.4833 88.6399 38.2683 90.014 39.6534Z" fill="#4E989F" stroke="#EEF6F6" stroke-width="1.63265"/>
</svg>
