<svg width="20" height="20" viewBox="0 0 20 20" fill="none" xmlns="http://www.w3.org/2000/svg">
<path d="M11.6272 3.1188C11.6652 2.91046 11.9215 2.83048 12.0713 2.98023L17.0198 7.92873C17.1695 8.07848 17.0895 8.33479 16.8812 8.37281L15.7248 8.58379C15.6723 8.59337 15.6239 8.61872 15.5862 8.65645L14.6214 9.62121L12.6291 11.6135C12.5944 11.6482 12.5701 11.6919 12.559 11.7397L11.8248 14.8931C11.7781 15.0937 11.529 15.1649 11.3833 15.0192L4.98079 8.61672C4.83509 8.47102 4.90626 8.22195 5.10694 8.17522L8.2603 7.44099C8.30807 7.42987 8.35177 7.40559 8.38645 7.37091L10.3788 5.37856L11.3435 4.41381C11.3813 4.37608 11.4066 4.32774 11.4162 4.27524L11.6272 3.1188Z" stroke="#373435" stroke-width="1.5"/>
<path d="M8.18196 11.8193L3.63661 16.3647" stroke="#373435" stroke-width="1.5" stroke-linecap="round"/>
<path d="M14.596 1.86816L18.1316 5.4037" stroke="#373435" stroke-width="1.5" stroke-linecap="round"/>
</svg>
