<svg width="22" height="16" viewBox="0 0 22 16" fill="none" xmlns="http://www.w3.org/2000/svg">
<path d="M15.6699 9.1297C17.0399 10.0597 17.9999 11.3197 17.9999 12.9997V15.9997H21.9999V12.9997C21.9999 10.8197 18.4299 9.5297 15.6699 9.1297Z" fill="#003034"/>
<path d="M13.9999 7.99979C16.2099 7.99979 17.9999 6.20979 17.9999 3.99979C17.9999 1.78979 16.2099 -0.000205994 13.9999 -0.000205994C13.5299 -0.000205994 13.0899 0.0997938 12.6699 0.239794C13.4999 1.26979 13.9999 2.57979 13.9999 3.99979C13.9999 5.41979 13.4999 6.72979 12.6699 7.7598C13.0899 7.8998 13.5299 7.99979 13.9999 7.99979Z" fill="#003034"/>
<path d="M8 7.99979C10.21 7.99979 12 6.20979 12 3.99979C12 1.78979 10.21 -0.000205994 8 -0.000205994C5.79 -0.000205994 4 1.78979 4 3.99979C4 6.20979 5.79 7.99979 8 7.99979ZM8 1.99979C9.1 1.99979 10 2.89979 10 3.99979C10 5.09979 9.1 5.99979 8 5.99979C6.9 5.99979 6 5.09979 6 3.99979C6 2.89979 6.9 1.99979 8 1.99979Z" fill="#003034"/>
<path d="M8 9.00003C5.33 9.00003 0 10.34 0 13V16H16V13C16 10.34 10.67 9.00003 8 9.00003ZM14 14H2V13.01C2.2 12.29 5.3 11 8 11C10.7 11 13.8 12.29 14 13V14Z" fill="#003034"/>
</svg>
