<svg width="12" height="12" viewBox="0 0 12 12" fill="none" xmlns="http://www.w3.org/2000/svg">
<path d="M5.24537e-07 6C6.63652e-07 7.5913 0.632142 9.11742 1.75736 10.2426C2.88258 11.3679 4.4087 12 6 12C7.5913 12 9.11742 11.3679 10.2426 10.2426C11.3679 9.11742 12 7.5913 12 6C12 4.4087 11.3679 2.88258 10.2426 1.75736C9.11742 0.632141 7.5913 3.85421e-07 6 5.24537e-07C4.4087 6.63652e-07 2.88258 0.632142 1.75736 1.75736C0.632141 2.88258 3.85421e-07 4.4087 5.24537e-07 6ZM4.428 8.10225C4.39341 8.13807 4.35203 8.16664 4.30628 8.18629C4.26053 8.20594 4.21132 8.21629 4.16153 8.21672C4.11173 8.21715 4.06235 8.20766 4.01627 8.18881C3.97018 8.16995 3.92831 8.14211 3.8931 8.1069C3.85789 8.07169 3.83005 8.02982 3.81119 7.98373C3.79234 7.93765 3.78285 7.88827 3.78328 7.83848C3.78371 7.78868 3.79406 7.73948 3.81371 7.69372C3.83337 7.64797 3.86193 7.60659 3.89775 7.572L6.96975 4.5L4.89375 4.5C4.79429 4.5 4.69891 4.46049 4.62859 4.39017C4.55826 4.31984 4.51875 4.22446 4.51875 4.125C4.51875 4.02554 4.55826 3.93016 4.62859 3.85984C4.69891 3.78951 4.79429 3.75 4.89375 3.75L7.875 3.75C7.97446 3.75 8.06984 3.78951 8.14017 3.85984C8.21049 3.93016 8.25 4.02554 8.25 4.125L8.25 7.10625C8.25 7.20571 8.21049 7.30109 8.14017 7.37142C8.06984 7.44174 7.97446 7.48125 7.875 7.48125C7.77554 7.48125 7.68016 7.44174 7.60984 7.37142C7.53951 7.30109 7.5 7.20571 7.5 7.10625L7.5 5.03025L4.428 8.10225Z" fill="#FFB067"/>
</svg>
