<svg width="20" height="19" viewBox="0 0 20 19" fill="none" xmlns="http://www.w3.org/2000/svg">
<g clip-path="url(#clip0_12_141)">
<path d="M13.8595 10.5101C14.9348 11.2268 15.6884 12.1977 15.6884 13.4922V15.8039H18.8281V13.4922C18.8281 11.8124 16.0259 10.8184 13.8595 10.5101Z" fill="#F9F5F0"/>
<path d="M12.5487 9.63945C14.2834 9.63945 15.6884 8.26015 15.6884 6.55721C15.6884 4.85428 14.2834 3.47498 12.5487 3.47498C12.1798 3.47498 11.8344 3.55203 11.5047 3.65991C12.1562 4.45359 12.5487 5.46302 12.5487 6.55721C12.5487 7.65141 12.1562 8.66084 11.5047 9.45452C11.8344 9.56239 12.1798 9.63945 12.5487 9.63945Z" fill="#F9F5F0"/>
<path d="M7.83925 9.63945C9.57395 9.63945 10.979 8.26015 10.979 6.55721C10.979 4.85428 9.57395 3.47498 7.83925 3.47498C6.10455 3.47498 4.69952 4.85428 4.69952 6.55721C4.69952 8.26015 6.10455 9.63945 7.83925 9.63945ZM7.83925 5.01609C8.70267 5.01609 9.40911 5.7096 9.40911 6.55721C9.40911 7.40483 8.70267 8.09833 7.83925 8.09833C6.97583 8.09833 6.26939 7.40483 6.26939 6.55721C6.26939 5.7096 6.97583 5.01609 7.83925 5.01609Z" fill="#F9F5F0"/>
<path d="M7.83911 10.4102C5.74335 10.4102 1.55966 11.4427 1.55966 13.4924V15.8041H14.1186V13.4924C14.1186 11.4427 9.93488 10.4102 7.83911 10.4102ZM12.5487 14.263H3.12952V13.5001C3.28651 12.9453 5.7198 11.9513 7.83911 11.9513C9.95843 11.9513 12.3917 12.9453 12.5487 13.4924V14.263Z" fill="#F9F5F0"/>
</g>
<defs>
<clipPath id="clip0_12_141">
<rect width="18.8384" height="18.4934" fill="white" transform="translate(0.77478 0.392944)"/>
</clipPath>
</defs>
</svg>
