<svg width="23" height="23" viewBox="0 0 23 23" fill="none" xmlns="http://www.w3.org/2000/svg">
<path fill-rule="evenodd" clip-rule="evenodd" d="M21.7062 1.29569C21.5346 1.12405 21.2772 1.07128 21.052 1.16138L1.55932 8.95837C1.33629 9.04759 1.18694 9.25998 1.17836 9.50008C1.16983 9.74014 1.30377 9.96261 1.51989 10.0674L9.20645 13.7953L12.9344 21.4819C13.0361 21.6916 13.2484 21.8239 13.4801 21.8239C13.4873 21.8239 13.4945 21.8237 13.5017 21.8235C13.7418 21.8149 13.9542 21.6656 14.0434 21.4425L21.8405 1.94995C21.9306 1.72461 21.8778 1.46728 21.7062 1.29569ZM3.28306 9.57343L18.7569 3.38394L9.53513 12.6056L3.28306 9.57343ZM10.3929 13.4669L13.4251 19.7191L19.6147 4.2452L10.3929 13.4669Z" fill="white"/>
<path d="M21.052 1.16138L21.1364 1.37243L21.1364 1.37242L21.052 1.16138ZM21.7062 1.29569L21.5455 1.4564L21.5455 1.45642L21.7062 1.29569ZM1.55932 8.95837L1.4749 8.74732L1.4749 8.74732L1.55932 8.95837ZM1.17836 9.50008L0.951198 9.49197L0.951196 9.49201L1.17836 9.50008ZM1.51989 10.0674L1.42069 10.272L1.4207 10.272L1.51989 10.0674ZM9.20645 13.7953L9.41098 13.6962L9.37658 13.6252L9.30565 13.5908L9.20645 13.7953ZM12.9344 21.4819L13.1389 21.3827L13.1389 21.3827L12.9344 21.4819ZM13.5017 21.8235L13.4937 21.5963L13.4928 21.5963L13.5017 21.8235ZM14.0434 21.4425L13.8324 21.3581L13.8323 21.3582L14.0434 21.4425ZM21.8405 1.94995L22.0515 2.03437L22.0515 2.03434L21.8405 1.94995ZM18.7569 3.38394L18.9176 3.54467L18.6725 3.17288L18.7569 3.38394ZM3.28306 9.57343L3.19864 9.36238L2.72096 9.55345L3.18387 9.77796L3.28306 9.57343ZM9.53513 12.6056L9.43594 12.8102L9.58149 12.8807L9.69587 12.7664L9.53513 12.6056ZM13.4251 19.7191L13.2206 19.8183L13.4451 20.2812L13.6362 19.8035L13.4251 19.7191ZM10.3929 13.4669L10.2321 13.3062L10.1178 13.4205L10.1883 13.5661L10.3929 13.4669ZM19.6147 4.2452L19.8257 4.32962L19.4539 4.08446L19.6147 4.2452ZM21.1364 1.37242C21.2772 1.3161 21.4382 1.3491 21.5455 1.4564L21.867 1.13497C21.631 0.89901 21.2771 0.826454 20.9675 0.95034L21.1364 1.37242ZM1.64374 9.16942L21.1364 1.37243L20.9676 0.950329L1.4749 8.74732L1.64374 9.16942ZM1.40553 9.50819C1.41089 9.358 1.5043 9.2252 1.64374 9.16942L1.4749 8.74732C1.16827 8.86997 0.962981 9.16197 0.951198 9.49197L1.40553 9.50819ZM1.61909 9.86291C1.48394 9.79736 1.4002 9.65825 1.40553 9.50816L0.951196 9.49201C0.939465 9.82204 1.1236 10.1279 1.42069 10.272L1.61909 9.86291ZM9.30565 13.5908L1.61908 9.86291L1.4207 10.272L9.10726 13.9999L9.30565 13.5908ZM13.1389 21.3827L9.41098 13.6962L9.00193 13.8945L12.7299 21.5811L13.1389 21.3827ZM13.4801 21.5966C13.3353 21.5966 13.2025 21.5138 13.1389 21.3827L12.7299 21.5811C12.8696 21.8693 13.1615 22.0512 13.4801 22.0512V21.5966ZM13.4928 21.5963C13.489 21.5965 13.4848 21.5966 13.4801 21.5966V22.0512C13.4898 22.0512 13.5 22.051 13.5107 22.0506L13.4928 21.5963ZM13.8323 21.3582C13.7766 21.4975 13.6438 21.591 13.4937 21.5963L13.5098 22.0506C13.8397 22.0389 14.1319 21.8336 14.2545 21.5269L13.8323 21.3582ZM21.6294 1.86552L13.8324 21.3581L14.2545 21.527L22.0515 2.03437L21.6294 1.86552ZM21.5455 1.45642C21.6527 1.56369 21.6858 1.72459 21.6294 1.86555L22.0515 2.03434C22.1754 1.72463 22.1029 1.37087 21.8669 1.13495L21.5455 1.45642ZM18.6725 3.17288L3.19864 9.36238L3.36748 9.78448L18.8413 3.59499L18.6725 3.17288ZM9.69587 12.7664L18.9176 3.54467L18.5961 3.2232L9.3744 12.4449L9.69587 12.7664ZM3.18387 9.77796L9.43594 12.8102L9.63433 12.4011L3.38226 9.3689L3.18387 9.77796ZM13.6296 19.6199L10.5974 13.3677L10.1883 13.5661L13.2206 19.8183L13.6296 19.6199ZM19.4036 4.16078L13.2141 19.6346L13.6362 19.8035L19.8257 4.32962L19.4036 4.16078ZM10.5536 13.6276L19.7754 4.40593L19.4539 4.08446L10.2321 13.3062L10.5536 13.6276Z" fill="white"/>
</svg>
