<svg width="20" height="19" viewBox="0 0 20 19" fill="none" xmlns="http://www.w3.org/2000/svg">
<g clip-path="url(#clip0_12_160)">
<path d="M15.7467 10.152C15.7776 9.90538 15.8007 9.65881 15.8007 9.39682C15.8007 9.13482 15.7776 8.88825 15.7467 8.64167L17.3726 7.37024C17.519 7.25466 17.5576 7.04661 17.4651 6.87709L15.924 4.21095C15.8546 4.08766 15.7236 4.01831 15.5849 4.01831C15.5387 4.01831 15.4925 4.02602 15.4539 4.04143L13.5352 4.81199C13.1345 4.50376 12.703 4.24948 12.233 4.05684L11.9402 2.01486C11.9171 1.82992 11.7552 1.69122 11.5626 1.69122H8.48037C8.28773 1.69122 8.12591 1.82992 8.10279 2.01486L7.80998 4.05684C7.33994 4.24948 6.90843 4.51147 6.50774 4.81199L4.58904 4.04143C4.54281 4.02602 4.49658 4.01831 4.45034 4.01831C4.31935 4.01831 4.18835 4.08766 4.119 4.21095L2.57788 6.87709C2.47771 7.04661 2.52394 7.25466 2.67035 7.37024L4.29623 8.64167C4.26541 8.88825 4.24229 9.14253 4.24229 9.39682C4.24229 9.6511 4.26541 9.90538 4.29623 10.152L2.67035 11.4234C2.52394 11.539 2.48542 11.747 2.57788 11.9165L4.119 14.5827C4.18835 14.706 4.31935 14.7753 4.45805 14.7753C4.50428 14.7753 4.55052 14.7676 4.58904 14.7522L6.50774 13.9816C6.90843 14.2899 7.33994 14.5442 7.80998 14.7368L8.10279 16.7788C8.12591 16.9637 8.28773 17.1024 8.48037 17.1024H11.5626C11.7552 17.1024 11.9171 16.9637 11.9402 16.7788L12.233 14.7368C12.703 14.5442 13.1345 14.2822 13.5352 13.9816L15.4539 14.7522C15.5002 14.7676 15.5464 14.7753 15.5926 14.7753C15.7236 14.7753 15.8546 14.706 15.924 14.5827L17.4651 11.9165C17.5576 11.747 17.519 11.539 17.3726 11.4234L15.7467 10.152ZM14.221 8.83431C14.2519 9.07318 14.2596 9.235 14.2596 9.39682C14.2596 9.55863 14.2442 9.72816 14.221 9.95932L14.1132 10.8301L14.799 11.3694L15.6312 12.0167L15.0918 12.9491L14.1132 12.5561L13.3118 12.2325L12.6183 12.7565C12.2869 13.003 11.971 13.188 11.6551 13.319L10.8383 13.6503L10.715 14.521L10.5609 15.5613H9.48209L9.33569 14.521L9.2124 13.6503L8.39561 13.319C8.06427 13.1803 7.75604 13.003 7.44782 12.7719L6.74661 12.2325L5.92982 12.5638L4.95121 12.9568L4.41181 12.0244L5.24402 11.3772L5.92982 10.8378L5.82194 9.96703C5.79882 9.72816 5.78341 9.55093 5.78341 9.39682C5.78341 9.2427 5.79882 9.06547 5.82194 8.83431L5.92982 7.96358L5.24402 7.42418L4.41181 6.77691L4.95121 5.84454L5.92982 6.23752L6.7312 6.56116L7.4247 6.03718C7.75604 5.7906 8.07197 5.60566 8.3879 5.47467L9.20469 5.14333L9.32798 4.2726L9.48209 3.23234H10.5532L10.6996 4.2726L10.8229 5.14333L11.6397 5.47467C11.971 5.61337 12.2792 5.7906 12.5874 6.02177L13.2887 6.56116L14.1054 6.22982L15.0841 5.83683L15.6235 6.76921L14.799 7.42418L14.1132 7.96358L14.221 8.83431ZM10.0215 6.31458C8.31855 6.31458 6.93925 7.69388 6.93925 9.39682C6.93925 11.0998 8.31855 12.4791 10.0215 12.4791C11.7244 12.4791 13.1037 11.0998 13.1037 9.39682C13.1037 7.69388 11.7244 6.31458 10.0215 6.31458ZM10.0215 10.9379C9.17387 10.9379 8.48037 10.2444 8.48037 9.39682C8.48037 8.5492 9.17387 7.8557 10.0215 7.8557C10.8691 7.8557 11.5626 8.5492 11.5626 9.39682C11.5626 10.2444 10.8691 10.9379 10.0215 10.9379Z" fill="#F9F5F0"/>
</g>
<defs>
<clipPath id="clip0_12_160">
<rect width="18.4934" height="18.4934" fill="white" transform="translate(0.774719 0.149658)"/>
</clipPath>
</defs>
</svg>
