<svg width="18" height="18" viewBox="0 0 18 18" fill="none" xmlns="http://www.w3.org/2000/svg">
<path d="M1.57352 1.0015C1.13108 1.0015 0.856664 1.48245 1.08109 1.86388L7.28669 10.1432V16.4276C7.28669 16.8525 7.73362 17.1285 8.11356 16.9386L11.3987 15.7958C11.5922 15.6988 11.7142 15.5013 11.7142 15.2848V10.1428L16.9198 1.86348C17.1447 1.48251 16.8702 1.0011 16.4273 1.0011L1.57352 1.0015ZM2.57482 2.14429H15.4262L10.6506 9.69625C10.5986 9.78418 10.5711 9.88473 10.5716 9.98672V14.9319L8.42878 15.5034V9.98684C8.42878 9.8844 8.40133 9.78441 8.34977 9.69637L2.57482 2.14429Z" fill="#8A8A8E" stroke="#8A8A8E" stroke-width="0.8"/>
</svg>
